<?xml version="1.0" encoding="UTF-8"?>
<!DOCTYPE svg PUBLIC "-//W3C//DTD SVG 1.1//EN" "http://www.w3.org/Graphics/SVG/1.1/DTD/svg11.dtd">
<!-- Creator: CorelDRAW X5 -->
<svg xmlns="http://www.w3.org/2000/svg" xml:space="preserve" width="32mm" height="10mm" style="shape-rendering:geometricPrecision; text-rendering:geometricPrecision; image-rendering:optimizeQuality; fill-rule:evenodd; clip-rule:evenodd"
viewBox="0 0 32 10"
 xmlns:xlink="http://www.w3.org/1999/xlink">
 <defs>
  <style type="text/css">
   <![CDATA[
    .fil0 {fill:black}
    .fil1 {fill:#E73A3A}
   ]]>
  </style>
 </defs>
 <g id="Layer_x0020_1">
  <metadata id="CorelCorpID_0Corel-Layer"/>
  <g id="_154497152">
   <path id="_154494992" class="fil0" d="M26.3866 4.1761l1.0723 0 1.0694 0 0.1023 0 0 0.0023c0.0206,0.0008 0.0411,0.0019 0.0615,0.0032l0 0c1.2887,0.0839 2.3079,1.1392 2.3079,2.4661 0,1.3651 -1.1066,2.4717 -2.4717,2.4717 -0.0018,0 -0.0035,0 -0.0053,0l-0.043 0 -1.7515 0 -5.2032 0c0.6291,-0.4241 1.0743,-1.1 1.1913,-1.8832l2.0584 0 1.9535 0 0.4712 0 0.9755 0 0.0213 0 0 -0.0003c0.3802,-0.0113 0.6849,-0.323 0.6849,-0.7059 0,-0.3828 -0.3047,-0.6945 -0.6849,-0.7058l0 -0.0003 -0.0213 0 -0.9054 0 -2.1226 0 0 -0.0002 -0.0191 0.0002c-1.3651,0 -2.4717,-1.1066 -2.4717,-2.4717 0,-1.3651 1.1066,-2.4717 2.4717,-2.4717 0.0064,0 0.0127,0.0002 0.0191,0.0003l0 -0.0003 0.0292 0 1.7515 0 1.8098 0 0.7746 0 0.5184 0 0.3933 0 0 0.805c0.0003,0.0634 -0.002,0.1227 -0.0115,0.1856 -0.0765,0.5058 -0.5192,0.8926 -1.0476,0.8926 -0.0059,-0.0001 -0.0116,0 -0.0175,0l-1.8183 0 -0.6012 0 -1.4467 0c-0.1118,0 -0.2224,0.0278 -0.3188,0.0759 -0.0065,0.0034 -0.0129,0.0068 -0.0193,0.0102 -0.2194,0.1202 -0.3681,0.353 -0.3681,0.6201 0,0.2692 0.1506,0.5032 0.3722,0.6223 0.0089,0.0046 0.0179,0.0093 0.0269,0.0138l0.0003 0.0002c0.0257,0.0123 0.0538,0.0234 0.0811,0.033l0 0c0.0275,0.0089 0.0518,0.0156 0.0803,0.0219 0.0074,0.0014 0.0148,0.0032 0.0224,0.0042 0.0179,0.003 0.0345,0.0055 0.0516,0.0073 0.024,0.0024 0.0473,0.0035 0.0714,0.0035l0.0001 0 0.9053 0zm2.0934 4.9433l-0.0125 0 -0.0276 0c-0.024,0 -0.048,0 -0.0719,0l-0.0205 0m0.1325 -0.0006c0.0003,0 0.0004,0 0,0l0 0.0006m-17.4721 0l-0.0036 0c-0.5849,0 -1.059,-0.4742 -1.059,-1.0592 0,-0.0276 0.001,-0.055 0.0031,-0.082l-0.0026 0 0 -7.0976 2.118 0 0 2.8574 0 4.2551 0 1.1263 -1.0559 0zm1.7619 -8.2389l6.9517 0c0.1834,0 0.3508,0.0011 0.5303,0.0274 0.1497,0.022 0.2949,0.0625 0.4384,0.1158 0.8732,0.3246 1.4955,1.1656 1.4955,2.1519 0,0.7439 -0.354,1.405 -0.9026,1.8244 0.5486,0.4194 0.9026,1.0804 0.9026,1.8243 0,1.035 -0.6851,1.9099 -1.6265,2.1962 -0.2604,0.0791 -0.4131,0.0989 -0.6687,0.0989l-7.1207 0 0 -8.2389zm6.6124 1.8836c0.3802,0.0113 0.6849,0.3229 0.6849,0.7058 0,0.3829 -0.3047,0.6945 -0.6849,0.7058l0 0.0004 -0.0213 0 -4.4725 0 0 -1.4124 4.4725 0 0.0213 0 0 0.0004zm0 3.0601c0.3802,0.0113 0.6848,0.323 0.6848,0.7058 0,0.3829 -0.3046,0.6946 -0.6848,0.7059l0 0.0003 -0.0213 0 -4.4726 0 0 -1.4123 4.4726 0 0.0213 0 0 0.0003z"/>
   <path id="_7076488" class="fil1" d="M4.884 5.2354l-2.8247 0c-0.5826,0 -1.0593,0.4766 -1.0593,1.0592l0 2.8248 3.884 0 0 -3.884zm0.0273 -3.6042l0 3.1602 -3.1603 0 3.1603 -3.1602zm4.3276 -0.7507l-2.8248 0c-0.5826,0 -1.0593,0.4767 -1.0593,1.0593l0 2.8248 3.8841 0 0 -3.8841zm-3.8841 8.2389l2.8248 0c0.5826,0 1.0593,-0.4767 1.0593,-1.0593l0 -2.8247 -3.8841 0 0 3.884z"/>
  </g>
 </g>
</svg>
